<svg xmlns="http://www.w3.org/2000/svg" viewBox="0 0 200 200">
  <rect width="200" height="200" fill="#9EDBD4"/>
  <!-- D shape -->
  <path d="M42 46h38c28 0 50 24 50 54s-22 54-50 54H42z" fill="#1a1a1a"/>
  <path d="M62 67h17c16 0 28 14 28 33s-12 33-28 33H62z" fill="#9EDBD4"/>
  <!-- O shape -->
  <path d="M118 46c28 0 50 24 50 54s-22 54-50 54-50-24-50-54 22-54 50-54z" fill="#1a1a1a"/>
  <path d="M118 67c16 0 29 14 29 33s-13 33-29 33-29-14-29-33 13-33 29-33z" fill="#9EDBD4"/>
  <!-- DOUGLAS text -->
  <text x="100" y="185" text-anchor="middle" font-family="'Helvetica Neue',Helvetica,Arial,sans-serif" font-size="15" font-weight="700" letter-spacing="2.5" fill="#1a1a1a">DOUGLAS</text>
</svg>
