<svg width="36" height="36" viewBox="0 0 36 36" fill="none" xmlns="http://www.w3.org/2000/svg">
<path d="M21.7321 22.9456C21.7321 24.3932 21.3961 25.5136 20.7241 26.3032C20.0521 27.0927 19.1537 27.4875 18.0253 27.4875C16.8968 27.4875 15.9911 27.0927 15.3045 26.3032C14.6142 25.5136 14.2709 24.3932 14.2709 22.9456V12.1211H12.2988V22.8704C12.2988 24.318 12.5435 25.5249 13.0365 26.4836C13.5296 27.4424 14.2016 28.153 15.0561 28.623C15.9071 29.0892 16.8822 29.3223 17.9778 29.3223C19.0734 29.3223 20.0521 29.0892 20.9104 28.623C21.7686 28.1568 22.4516 27.4424 22.9519 26.4836C23.4522 25.5249 23.7042 24.3217 23.7042 22.8704V12.1211H21.7321V22.9456Z" fill="#EEECEA"/>
<path d="M15.864 10.4564C16.2402 10.4564 16.5579 10.321 16.8135 10.0466C17.0728 9.7721 17.2007 9.45252 17.2007 9.0803C17.2007 8.70807 17.0728 8.36217 16.8135 8.09146C16.5542 7.81699 16.2402 7.68164 15.864 7.68164C15.4878 7.68164 15.1701 7.81699 14.9145 8.09146C14.6552 8.36593 14.5273 8.69679 14.5273 9.0803C14.5273 9.4638 14.6552 9.7721 14.9145 10.0466C15.1738 10.321 15.4878 10.4564 15.864 10.4564Z" fill="#EEECEA"/>
<path d="M20.1589 10.4564C20.5351 10.4564 20.8455 10.321 21.0975 10.0466C21.3458 9.7721 21.4737 9.45252 21.4737 9.0803C21.4737 8.70807 21.3495 8.36217 21.0975 8.09146C20.8455 7.81699 20.5351 7.68164 20.1589 7.68164C19.7828 7.68164 19.465 7.81699 19.2094 8.09146C18.9501 8.36593 18.8223 8.69679 18.8223 9.0803C18.8223 9.4638 18.9501 9.7721 19.2094 10.0466C19.4687 10.321 19.7828 10.4564 20.1589 10.4564Z" fill="#EEECEA"/>
<rect x="7.625" y="2.625" width="20.75" height="31.75" rx="10.375" stroke="#EEECEA" stroke-width="1.25"/>
</svg>
